# xmcd
#
# Track frame offsets: 
#        150
#        14981
#        18596
#        29652
#        49651
#        54123
#        70618
#        84494
#        88598
#        103120
#        113934
#        130461
#        142020
#        148579
#        160071
#
# Disc length: 2211 seconds
#
# Revision: 0
# Processed by: cddbd v1.5.2PL0 Copyright (c) Steve Scherf et al.
# Submitted via: ExactAudioCopy v1.0b3
#
DISCID=d308a10f
DTITLE=Hillfolk Noir - Radio Hour
DYEAR=2012
DGENRE=Blues
TTITLE0=Down the Road
TTITLE1=Introduction
TTITLE2=Run Round Reel
TTITLE3=Ballad of a Lonely Rounder
TTITLE4=Hillfolk Wild Root Cream Oil
TTITLE5=The Great Grizzly Bear Scare
TTITLE6=Parchman Farm Blues
TTITLE7=Pig Town Jug
TTITLE8=Trash Can
TTITLE9=Hand in Hand
TTITLE10=Don't Mean Nothing
TTITLE11=Talking Music Blues
TTITLE12=Rattler in the Outhouse
TTITLE13=Jim Beam Blues
TTITLE14=Goodbye
EXTD=
EXTT0=
EXTT1=
EXTT2=
EXTT3=
EXTT4=
EXTT5=
EXTT6=
EXTT7=
EXTT8=
EXTT9=
EXTT10=
EXTT11=
EXTT12=
EXTT13=
EXTT14=
PLAYORDER=
